<svg xmlns="http://www.w3.org/2000/svg" xmlns:xlink="http://www.w3.org/1999/xlink" fill="none" version="1.1" width="364" height="100" viewBox="0 0 364 100"><defs><clipPath id="master_svg0_1_00"><rect x="0" y="0" width="364" height="100" rx="0"/></clipPath></defs><g clip-path="url(#master_svg0_1_00)"><rect x="0" y="0" width="364" height="100" rx="0" fill="#FFFFFF" fill-opacity="1"/><g><g><rect x="10.322578430175781" y="51.79998779296875" width="79.3548355102539" height="31.19999885559082" rx="7" fill="#00C292" fill-opacity="1"/></g><g><rect x="7.096771240234375" y="43.350006103515625" width="85.80644989013672" height="33.14999771118164" rx="7" fill="#01CD9A" fill-opacity="1"/></g><g><rect x="2.5806427001953125" y="34.899993896484375" width="94.83870697021484" height="33.14999771118164" rx="7" fill="#00D7A2" fill-opacity="1"/></g><g><rect x="0" y="18" width="100" height="39" rx="7" fill="#00E3AB" fill-opacity="1"/></g><g><line x1="10.322578430175781" y1="28.29998779296875" x2="31.612897872924805" y2="28.29998779296875" fill-opacity="0" stroke-opacity="1" stroke="#FFFFFF" fill="none" stroke-width="8"/></g><g><line x1="10.322578430175781" y1="36.649993896484375" x2="89.67740631103516" y2="36.649993896484375" fill-opacity="0" stroke-opacity="1" stroke="#FFFFFF" fill="none" stroke-width="3"/></g><g><line x1="10.322578430175781" y1="42.5" x2="67.7419319152832" y2="42.5" fill-opacity="0" stroke-opacity="1" stroke="#FFFFFF" fill="none" stroke-width="3"/></g><g><line x1="10.322578430175781" y1="48.350006103515625" x2="81.29032135009766" y2="48.350006103515625" fill-opacity="0" stroke-opacity="1" stroke="#FFFFFF" fill="none" stroke-width="3"/></g></g><g><path d="M123.19200000000001,65.64798474121093L116.892,65.64798474121093L116.892,42.57198474121094L108.972,42.57198474121094L108.972,36.66798474121094L131.076,36.66798474121094L131.076,42.57198474121094L123.19200000000001,42.57198474121094L123.19200000000001,65.64798474121093ZM134.136,65.64798474121093L134.136,36.66798474121094L140.22,36.66798474121094L140.22,46.963984741210936L140.4,46.963984741210936Q141.336,45.415984741210934,142.86599999999999,44.533984741210936Q144.39600000000002,43.65198474121094,146.376,43.65198474121094Q149.57999999999998,43.65198474121094,151.362,45.72198474121094Q153.144,47.79198474121094,153.144,51.60798474121094L153.144,65.64798474121093L147.06,65.64798474121093L147.06,53.01198474121094Q147.06,51.35598474121094,146.232,50.40198474121094Q145.404,49.44798474121094,143.964,49.44798474121094Q142.272,49.44798474121094,141.246,50.50998474121094Q140.22,51.57198474121094,140.22,53.40798474121094L140.22,65.64798474121093L134.136,65.64798474121093ZM157.428,65.64798474121093L157.10399999999998,44.155984741210936L163.512,44.155984741210936L163.512,48.043984741210934L163.728,48.043984741210934Q165.996,43.65198474121094,171.612,43.65198474121094L171.828,43.65198474121094L171.828,49.591984741210936L171.504,49.591984741210936Q167.292,49.591984741210936,165.402,50.97798474121094Q163.512,52.36398474121094,163.512,55.171984741210935L163.512,65.64798474121093L157.428,65.64798474121093ZM193.356,53.37198474121094Q193.356,55.63998474121094,192.888,57.25998474121094L179.424,57.25998474121094Q180.108,61.14798474121094,183.816,61.14798474121094Q185.112,61.14798474121094,186.156,60.39198474121094Q187.2,59.63598474121094,187.812,58.30398474121094L192.816,60.463984741210936Q191.736,63.16398474121094,189.378,64.65798474121094Q187.01999999999998,66.15198474121094,183.78,66.15198474121094Q180.54000000000002,66.15198474121094,178.09199999999998,64.80198474121093Q175.644,63.451984741210936,174.32999999999998,60.94998474121094Q173.01600000000002,58.44798474121094,173.01600000000002,55.09998474121094Q173.01600000000002,51.60798474121094,174.312,49.033984741210936Q175.608,46.45998474121094,177.966,45.055984741210935Q180.324,43.65198474121094,183.49200000000002,43.65198474121094Q186.44400000000002,43.65198474121094,188.676,44.83998474121094Q190.90800000000002,46.027984741210936,192.132,48.22398474121094Q193.356,50.41998474121094,193.356,53.37198474121094ZM187.164,52.25598474121094Q187.164,50.63598474121093,186.174,49.62798474121094Q185.184,48.61998474121094,183.49200000000002,48.61998474121094Q180.39600000000002,48.61998474121094,179.53199999999998,52.25598474121094L187.164,52.25598474121094ZM202.356,66.15198474121094Q199.512,66.15198474121094,197.65800000000002,64.51398474121095Q195.804,62.875984741210935,195.804,59.99598474121094Q195.804,57.76398474121093,197.064,56.07198474121094Q198.324,54.37998474121093,200.64600000000002,53.46198474121094Q202.96800000000002,52.543984741210934,206.064,52.543984741210934L208.00799999999998,52.543984741210934L208.00799999999998,52.00398474121094Q208.00799999999998,50.41998474121094,207.126,49.573984741210936Q206.244,48.72798474121094,204.66,48.72798474121094Q202.392,48.72798474121094,200.55599999999998,50.95998474121094L196.596,47.93598474121094Q200.088,43.65198474121094,205.452,43.65198474121094Q208.00799999999998,43.65198474121094,209.988,44.677984741210935Q211.96800000000002,45.70398474121094,213.048,47.53998474121094Q214.128,49.37598474121094,214.128,51.787984741210934L214.128,65.64798474121093L208.00799999999998,65.64798474121093L208.00799999999998,63.19998474121094L207.792,63.19998474121094Q207.144,64.63998474121094,205.704,65.39598474121094Q204.264,66.15198474121094,202.356,66.15198474121094ZM204.264,61.14798474121094Q205.88400000000001,61.14798474121094,206.946,60.409984741210934Q208.00799999999998,59.671984741210935,208.00799999999998,58.37598474121094L208.00799999999998,57.51198474121094L206.676,57.51198474121094Q204.336,57.51198474121094,203.184,57.97998474121094Q202.03199999999998,58.44798474121094,202.03199999999998,59.56398474121094Q202.03199999999998,60.247984741210935,202.626,60.69798474121094Q203.22,61.14798474121094,204.264,61.14798474121094ZM237.708,65.64798474121093L231.588,65.64798474121093L231.588,63.091984741210936L231.372,63.091984741210936Q230.50799999999998,64.53198474121093,229.15800000000002,65.34198474121094Q227.808,66.15198474121094,226.152,66.15198474121094Q223.452,66.15198474121094,221.436,64.74798474121093Q219.42000000000002,63.34398474121094,218.322,60.75198474121094Q217.224,58.159984741210934,217.224,54.70398474121094Q217.224,51.35598474121094,218.286,48.85398474121094Q219.348,46.35198474121094,221.292,45.00198474121093Q223.236,43.65198474121094,225.828,43.65198474121094Q227.664,43.65198474121094,229.06799999999998,44.44398474121094Q230.47199999999998,45.23598474121094,231.372,46.71198474121094L231.588,46.71198474121094L231.588,36.66798474121094L237.708,36.66798474121094L237.708,65.64798474121093ZM231.732,54.91998474121094Q231.732,52.36398474121094,230.598,50.86998474121094Q229.464,49.37598474121094,227.51999999999998,49.37598474121094Q225.684,49.37598474121094,224.56799999999998,50.86998474121094Q223.452,52.36398474121094,223.452,54.91998474121094Q223.452,57.439984741210935,224.60399999999998,58.933984741210935Q225.756,60.427984741210935,227.664,60.427984741210935Q229.536,60.427984741210935,230.63400000000001,58.933984741210935Q231.732,57.439984741210935,231.732,54.91998474121094Z" fill="#000000" fill-opacity="1"/><path d="" fill="#9E9E9E" fill-opacity="1"/><path d="M261.432,65.64798474121093L255.132,65.64798474121093L255.132,36.66798474121094L260.928,36.66798474121094L272.196,53.76798474121094L272.41200000000003,53.76798474121094L272.41200000000003,36.66798474121094L278.712,36.66798474121094L278.712,65.64798474121093L273.24,65.64798474121093L261.648,48.54798474121094L261.432,48.54798474121094L261.432,65.64798474121093ZM292.68,66.15198474121094Q289.512,66.15198474121094,287.172,64.78398474121093Q284.832,63.415984741210934,283.572,60.85998474121094Q282.312,58.30398474121094,282.312,54.88398474121094Q282.312,51.463984741210936,283.572,48.92598474121094Q284.832,46.38798474121094,287.172,45.01998474121093Q289.512,43.65198474121094,292.68,43.65198474121094Q295.848,43.65198474121094,298.188,45.01998474121093Q300.528,46.38798474121094,301.788,48.92598474121094Q303.048,51.463984741210936,303.048,54.88398474121094Q303.048,58.30398474121094,301.788,60.85998474121094Q300.528,63.415984741210934,298.188,64.78398474121093Q295.848,66.15198474121094,292.68,66.15198474121094ZM292.68,60.39198474121094Q294.58799999999997,60.39198474121094,295.704,58.915984741210934Q296.82,57.439984741210935,296.82,54.88398474121094Q296.82,52.36398474121094,295.704,50.88798474121094Q294.58799999999997,49.41198474121094,292.68,49.41198474121094Q290.772,49.41198474121094,289.656,50.88798474121094Q288.53999999999996,52.36398474121094,288.53999999999996,54.88398474121094Q288.53999999999996,57.439984741210935,289.656,58.915984741210934Q290.772,60.39198474121094,292.68,60.39198474121094ZM319.824,49.915984741210934L314.28,49.915984741210934L314.28,57.835984741210936Q314.28,58.951984741210936,314.946,59.58198474121094Q315.61199999999997,60.21198474121094,316.836,60.21198474121094Q318.096,60.21198474121094,319.392,59.81598474121094L319.392,65.57598474121093Q317.41200000000003,66.18798474121094,315.36,66.18798474121094Q311.868,66.18798474121094,310.014,64.26198474121094Q308.15999999999997,62.335984741210936,308.15999999999997,58.771984741210936L308.15999999999997,49.915984741210934L304.848,49.915984741210934L304.848,44.155984741210936L308.15999999999997,44.155984741210936L308.15999999999997,38.143984741210936L314.28,38.143984741210936L314.28,44.155984741210936L319.824,44.155984741210936L319.824,49.915984741210934ZM341.748,53.37198474121094Q341.748,55.63998474121094,341.28,57.25998474121094L327.81600000000003,57.25998474121094Q328.5,61.14798474121094,332.20799999999997,61.14798474121094Q333.504,61.14798474121094,334.548,60.39198474121094Q335.592,59.63598474121094,336.204,58.30398474121094L341.20799999999997,60.463984741210936Q340.128,63.16398474121094,337.77,64.65798474121094Q335.41200000000003,66.15198474121094,332.172,66.15198474121094Q328.932,66.15198474121094,326.48400000000004,64.80198474121093Q324.036,63.451984741210936,322.722,60.94998474121094Q321.408,58.44798474121094,321.408,55.09998474121094Q321.408,51.60798474121094,322.704,49.033984741210936Q324,46.45998474121094,326.358,45.055984741210935Q328.716,43.65198474121094,331.884,43.65198474121094Q334.836,43.65198474121094,337.068,44.83998474121094Q339.3,46.027984741210936,340.524,48.22398474121094Q341.748,50.41998474121094,341.748,53.37198474121094ZM335.55600000000004,52.25598474121094Q335.55600000000004,50.63598474121093,334.56600000000003,49.62798474121094Q333.576,48.61998474121094,331.884,48.61998474121094Q328.788,48.61998474121094,327.924,52.25598474121094L335.55600000000004,52.25598474121094ZM353.26800000000003,66.15198474121094Q349.884,66.15198474121094,347.43600000000004,64.58598474121094Q344.988,63.01998474121094,344.052,60.39198474121094L349.128,58.23198474121094Q349.632,59.59998474121094,350.712,60.37398474121094Q351.79200000000003,61.14798474121094,353.196,61.14798474121094Q354.49199999999996,61.14798474121094,355.14,60.71598474121094Q355.788,60.283984741210936,355.788,59.527984741210936Q355.788,58.771984741210936,354.978,58.24998474121094Q354.168,57.72798474121094,352.548,57.36798474121093Q348.696,56.50398474121094,346.554,54.84798474121094Q344.41200000000003,53.19198474121094,344.41200000000003,50.41998474121094Q344.41200000000003,48.36798474121093,345.474,46.83798474121094Q346.536,45.30798474121094,348.48,44.47998474121094Q350.424,43.65198474121094,352.98,43.65198474121094Q356.11199999999997,43.65198474121094,358.524,45.19998474121094Q360.93600000000004,46.74798474121094,361.98,49.37598474121094L356.94,51.49998474121094Q356.29200000000003,50.16798474121094,355.248,49.393984741210936Q354.204,48.61998474121094,353.08799999999997,48.61998474121094Q351.9,48.61998474121094,351.27,49.06998474121094Q350.64,49.51998474121093,350.64,50.275984741210934Q350.64,51.067984741210935,351.486,51.57198474121094Q352.332,52.07598474121094,354.56399999999996,52.579984741210936Q362.01599999999996,54.19998474121094,362.01599999999996,59.27598474121094Q362.01599999999996,61.25598474121094,360.882,62.82198474121094Q359.748,64.38798474121094,357.75,65.26998474121095Q355.752,66.15198474121094,353.26800000000003,66.15198474121094Z" fill="#00C292" fill-opacity="1"/></g></g></svg>